<?xml version="1.0" encoding="utf-8"?>
<!DOCTYPE svg PUBLIC "-//W3C//DTD SVG 1.1//EN" "http://www.w3.org/Graphics/SVG/1.1/DTD/svg11.dtd">
<svg version="1.1" xmlns="http://www.w3.org/2000/svg" xmlns:xlink="http://www.w3.org/1999/xlink"
	width="67.98px" height="75.862px" viewBox="9.171 9.275 67.98 75.862" xml:space="preserve">
		<path fill="#FFFFFF" d="M71.424,58.287c0-9.499,0-46.424,0-46.424h-2.565H16.802l-5.638,3.333v66.94h57.695v-5.972
			h8.293C77.152,76.165,71.424,71.567,71.424,58.287z M67.63,48.26h-9.877V37.69h9.877V48.26z M43.458,25.495v10.57H32.414v-10.57
			H43.458z M45.083,25.495h11.045v10.57H45.083V25.495z M20.596,25.495h10.192v10.57H20.596V25.495z M20.596,37.691h10.192V48.26
			H20.596V37.691z M20.596,49.886h10.192v8.403c0,0.758,0.016,1.479,0.045,2.167H20.596V49.886z M32.414,58.289v-8.403h11.044v8.403
			c0,0.758,0.016,1.479,0.045,2.167H32.46C32.43,59.771,32.414,59.051,32.414,58.289z M32.414,48.26V37.69h11.044V48.26H32.414z
			 M45.083,37.691h11.045V48.26H45.083V37.691z M67.63,36.064h-9.877V25.495h9.877V36.064z M30.931,62.082
			c0.429,5.374,1.755,8.489,3.077,10.289H23.405c-0.258-0.229-0.69-0.713-1.143-1.654c-0.683-1.42-1.482-4.045-1.637-8.635H30.931z
			 M36.175,72.371c-1.275-1.172-3.09-3.932-3.614-10.289h11.04c0.429,5.374,1.756,8.489,3.077,10.289H36.175z M48.845,72.371
			c-1.275-1.172-3.09-3.932-3.613-10.289h11.039c0.429,5.374,1.756,8.489,3.077,10.289H48.845z M45.13,60.456
			c-0.029-0.686-0.047-1.405-0.047-2.167v-8.403h11.045v8.403c0,0.758,0.016,1.479,0.045,2.167H45.13z M57.753,58.289v-8.403h9.877
			v8.401v1.628c0,0.183,0.002,0.361,0.004,0.541H57.8C57.77,59.771,57.753,59.051,57.753,58.289z M65.065,78.343H14.958V17.361
			l1.844-1.09c0,10.225,0,35.37,0,44.187c0,14.636,5.728,15.708,5.728,15.708h42.537L65.065,78.343L65.065,78.343z M68.859,72.371
			h-3.794h-3.55c-1.275-1.172-3.09-3.932-3.613-10.289h9.775c0.172,3.999,0.829,7.443,1.966,10.289H68.859z"/>
</svg>
