<?xml version="1.0" encoding="UTF-8"?><svg id="Capa_1" xmlns="http://www.w3.org/2000/svg" viewBox="0 0 76 38"><defs><style>.cls-1{fill:#000;fill-rule:evenodd;stroke-width:0px;}</style></defs><g id="layer1"><path id="path827" class="cls-1" d="M8.16,14.24c4.5.11,10.3.17,15.43.13,5.14-.05,11.72-.49,15.36-.41,3.64.08,3.9-.85,3.26-1.89-.63-1.04-4.89-3.57-5.71-5.27-.82-1.7.22-3.82.81-4.95.59-1.13,1.57-1.81,2.72-1.84,1.16-.04,1.12.33,4.2,1.62l14.35,6.09c4.23,1.72,8.34,3.13,11.03,4.23,2.7,1.11,4.13,1.37,5.15,2.42,1.01,1.05,1.67,2.48.95,3.91-.71,1.42-.93,1.61-5.23,4.64-4.31,3.03-16.13,11.08-20.59,13.53-4.45,2.45-5.68,1.32-6.11,1.18-.44-.14-.72-1.92-1.61-2.97-.35-.84-1.32-1.62-1.05-2.51.28-.9,1.57-1.75,2.71-2.85,1.14-1.1,3.26-2.86,4.13-3.77.88-.91,1.16-1.18,1.1-1.69-.06-.52-.17-1.25-1.83-1.21-1.65.04-2.46.04-7.12.22l-20.83.88-10.47.38c-2.53.14-3.71.41-4.77.49-1.06.08-2.71.44-3.36-.11C0,23.93-.09,22.11.07,21.26c.02-.77.79-.65,1.56-1.88.62-.96.23-2.44.8-3.42.36-.74.45-1.05.97-1.38.51-.33,1.39-.32,2.03-.46l2.73.13Z"/></g></svg>