<?xml version="1.0" encoding="UTF-8"?>
<svg id="Capa_1" data-name="Capa 1" xmlns="http://www.w3.org/2000/svg" viewBox="0 0 644.5 51.96">
  <defs>
    <style>
      .cls-1 {
        fill: #fcd116;
        fill-rule: evenodd;
      }
    </style>
  </defs>
  <g>
    <path d="M102.43,40.07v-1.35l3.36-.91V5.91l-3.33-.88v-1.37h16.57v1.37l-4.07.88v32.28l8.38-1.32,3.75-8.43,4.17.44-1.62,11.2h-27.2Z"/>
    <path d="M140.37,40.63c-1.42,0-2.67-.3-3.74-.91s-1.9-1.45-2.48-2.52-.87-2.34-.87-3.8c0-1.55.42-2.87,1.26-3.95.84-1.08,1.95-1.95,3.33-2.61s2.9-1.14,4.57-1.43,3.32-.45,4.97-.47v-2.57c0-.78-.18-1.48-.53-2.08-.35-.6-.87-1.08-1.54-1.42-.68-.34-1.53-.51-2.56-.51-1.63,0-3.08.18-4.33.54-1.25.36-2.21.67-2.88.93l-.81-1.57c.52-.54,1.3-1.12,2.33-1.74,1.03-.62,2.3-1.16,3.8-1.62,1.5-.46,3.22-.69,5.15-.69s3.66.31,5.06.92c1.4.61,2.47,1.58,3.22,2.9.75,1.32,1.13,3.06,1.13,5.2v14.85l1.94.39v1.32c-.36.07-.87.16-1.54.28-.67.12-1.41.23-2.22.32-.81.09-1.63.13-2.46.13-1.16,0-2.05-.13-2.67-.38-.62-.25-.93-.87-.93-1.85v-1.86c-.28.65-.75,1.3-1.42,1.95-.67.65-1.49,1.18-2.46,1.61-.97.42-2.08.64-3.32.64ZM144.63,36.64c.42,0,.93-.11,1.51-.32s1.01-.55,1.29-1v-8.6c-1.47,0-2.63.25-3.48.74s-1.46,1.16-1.83,2c-.37.84-.55,1.79-.55,2.83,0,.87.13,1.63.39,2.28.26.65.62,1.16,1.08,1.53s.99.55,1.59.55Z"/>
    <path d="M184.4,40.58c-3.04,0-5.66-.45-7.87-1.34-2.21-.89-4.02-2.15-5.45-3.79-1.43-1.63-2.49-3.58-3.19-5.84-.69-2.26-1.04-4.76-1.04-7.49,0-2.96.42-5.6,1.26-7.94.84-2.34,2.03-4.33,3.58-5.97,1.54-1.64,3.39-2.9,5.55-3.76,2.16-.87,4.55-1.3,7.18-1.3,1.49,0,2.74.08,3.77.23,1.03.16,1.96.34,2.78.55s1.66.4,2.51.55,1.83.23,2.94.23l-1.2,10.69h-4.88l-1.35-7.57c-.1-.47-.3-.94-.61-1.38s-.76-.82-1.35-1.1c-.59-.29-1.34-.43-2.25-.43-1.65,0-3.04.58-4.18,1.73-1.14,1.15-1.99,2.95-2.57,5.39s-.87,5.59-.87,9.45c0,2.27.14,4.45.43,6.54.29,2.09.74,3.95,1.37,5.58.63,1.63,1.46,2.91,2.49,3.86,1.03.95,2.3,1.42,3.8,1.42.78,0,1.49-.18,2.11-.55s1.14-.81,1.57-1.34c.42-.52.73-1,.91-1.45l2.16-6.84,3.87.27-.91,9.75c-.67.02-1.3.12-1.89.31-.59.19-1.25.4-1.99.64-.74.24-1.63.44-2.7.62-1.06.18-2.39.27-3.99.27Z"/>
    <path d="M205.31,40.63c-1.42,0-2.67-.3-3.74-.91s-1.89-1.45-2.47-2.52-.87-2.34-.87-3.8c0-1.55.42-2.87,1.26-3.95.84-1.08,1.95-1.95,3.33-2.61,1.38-.66,2.9-1.14,4.57-1.43,1.67-.29,3.32-.45,4.98-.47v-2.57c0-.78-.18-1.48-.53-2.08-.35-.6-.87-1.08-1.54-1.42s-1.53-.51-2.56-.51c-1.63,0-3.08.18-4.33.54-1.25.36-2.21.67-2.88.93l-.81-1.57c.52-.54,1.3-1.12,2.33-1.74,1.03-.62,2.3-1.16,3.8-1.62,1.5-.46,3.22-.69,5.15-.69s3.66.31,5.06.92,2.47,1.58,3.22,2.9c.75,1.32,1.13,3.06,1.13,5.2v14.85l1.94.39v1.32c-.36.07-.87.16-1.54.28-.67.12-1.41.23-2.22.32-.81.09-1.63.13-2.46.13-1.16,0-2.05-.13-2.67-.38-.62-.25-.93-.87-.93-1.85v-1.86c-.28.65-.75,1.3-1.42,1.95-.67.65-1.49,1.18-2.46,1.61-.97.42-2.08.64-3.32.64ZM209.57,36.64c.42,0,.93-.11,1.51-.32.58-.21,1.01-.55,1.29-1v-8.6c-1.47,0-2.63.25-3.48.74-.85.49-1.46,1.16-1.83,2-.37.84-.55,1.79-.55,2.83,0,.87.13,1.63.39,2.28.26.65.62,1.16,1.08,1.53s.99.55,1.59.55Z"/>
    <path d="M233.96,40.66c-1.39,0-2.7-.13-3.92-.4-1.23-.27-2.31-.54-3.26-.82-.95-.28-1.69-.42-2.23-.44l.2-6.54h3.55l.98,2.97c.28.74.72,1.36,1.32,1.89.6.52,1.25.93,1.95,1.21.69.29,1.29.43,1.8.43.96,0,1.75-.14,2.36-.42.61-.28,1.07-.65,1.37-1.13s.45-1,.45-1.57c0-.72-.27-1.32-.8-1.81-.53-.49-1.3-.97-2.3-1.45-1-.47-2.21-1.03-3.61-1.67-1.21-.56-2.38-1.22-3.52-1.99-1.14-.77-2.07-1.74-2.79-2.9-.73-1.17-1.09-2.62-1.09-4.35,0-1.44.39-2.72,1.18-3.86.78-1.14,1.95-2.03,3.5-2.68,1.55-.65,3.49-.98,5.81-.98,1.47,0,2.73.11,3.77.33s1.94.45,2.7.67c.75.23,1.42.38,2.01.44l-.22,6.57h-3.6l-.83-2.77c-.21-.78-.53-1.44-.96-1.97-.42-.53-.91-.93-1.45-1.2-.54-.27-1.1-.4-1.69-.4-.74,0-1.39.13-1.97.4-.58.27-1.03.65-1.36,1.14-.33.49-.49,1.05-.49,1.67,0,.9.29,1.64.88,2.22s1.35,1.09,2.29,1.54c.94.45,1.94.93,3,1.43.96.46,1.91.94,2.83,1.45.92.51,1.76,1.07,2.5,1.7.74.63,1.33,1.34,1.76,2.14.43.8.65,1.73.65,2.79,0,1.49-.37,2.86-1.12,4.13-.74,1.27-1.9,2.29-3.48,3.06-1.58.78-3.64,1.16-6.19,1.16Z"/>
    <path d="M254.08,40.63c-1.42,0-2.67-.3-3.74-.91s-1.9-1.45-2.48-2.52-.87-2.34-.87-3.8c0-1.55.42-2.87,1.26-3.95.84-1.08,1.95-1.95,3.33-2.61s2.9-1.14,4.57-1.43,3.32-.45,4.97-.47v-2.57c0-.78-.18-1.48-.53-2.08-.35-.6-.87-1.08-1.54-1.42-.68-.34-1.53-.51-2.56-.51-1.63,0-3.08.18-4.33.54-1.25.36-2.21.67-2.88.93l-.81-1.57c.52-.54,1.3-1.12,2.33-1.74,1.03-.62,2.3-1.16,3.8-1.62,1.5-.46,3.22-.69,5.15-.69s3.66.31,5.06.92c1.4.61,2.47,1.58,3.22,2.9.75,1.32,1.13,3.06,1.13,5.2v14.85l1.94.39v1.32c-.36.07-.87.16-1.54.28-.67.12-1.41.23-2.22.32-.81.09-1.63.13-2.46.13-1.16,0-2.05-.13-2.67-.38-.62-.25-.93-.87-.93-1.85v-1.86c-.28.65-.75,1.3-1.42,1.95-.67.65-1.49,1.18-2.46,1.61-.97.42-2.08.64-3.32.64ZM258.34,36.64c.42,0,.93-.11,1.51-.32s1.01-.55,1.29-1v-8.6c-1.47,0-2.63.25-3.48.74s-1.46,1.16-1.83,2c-.37.84-.55,1.79-.55,2.83,0,.87.13,1.63.39,2.28.26.65.62,1.16,1.08,1.53s.99.55,1.59.55Z"/>
    <path d="M278.85,4.98v-1.32h16.44v1.32l-3.8.81,6.84,24.04.86,3.11.83-3.04,7.3-24.09-3.5-.83v-1.32h10.2v1.32l-3.19.83-11.69,34.26h-6.18l-11.54-34.26-2.57-.83Z"/>
    <path d="M312.16,40.07v-1.37l2.82-.76v-18.63l-2.84-1.1v-1.47l9.22-2.52h.69l1.18,1.1.03,22.62,2.96.76v1.37h-14.04ZM318.92,12.11c-1.34,0-2.36-.4-3.05-1.2-.69-.8-1.04-1.74-1.04-2.82,0-1.34.41-2.47,1.23-3.38.82-.91,1.98-1.37,3.5-1.37h.05c1.36,0,2.38.39,3.06,1.18s1.03,1.72,1.03,2.82c0,1.29-.41,2.41-1.23,3.36-.82.95-1.98,1.42-3.5,1.42h-.05Z"/>
    <path d="M339.36,40.66c-2.91,0-5.28-.53-7.11-1.58-1.83-1.05-3.17-2.54-4.03-4.46-.86-1.92-1.29-4.18-1.29-6.78,0-2.12.31-4.04.92-5.73.61-1.7,1.48-3.14,2.61-4.34,1.13-1.19,2.47-2.11,4.02-2.74s3.27-.96,5.15-.96c3.24,0,5.74.79,7.52,2.37,1.78,1.58,2.7,3.85,2.74,6.83,0,1.13-.03,2.08-.1,2.87-.07.78-.16,1.37-.29,1.76h-13.82c.07,1.68.26,3.1.58,4.26.32,1.16.76,2.09,1.32,2.78.56.69,1.25,1.2,2.07,1.52.82.32,1.75.48,2.79.48.95,0,2.01-.16,3.19-.47,1.18-.31,2.12-.72,2.82-1.23l.78,1.67c-.46.51-1.19,1.05-2.19,1.63s-2.17,1.08-3.5,1.49-2.72.63-4.18.63ZM335.63,26.32l5.83-.42c.02-.52.03-1.02.04-1.48,0-.47.02-.96.04-1.48,0-2.35-.16-4.13-.47-5.32-.31-1.19-.96-1.79-1.96-1.79-.46,0-.9.18-1.32.53-.43.35-.81.93-1.14,1.74-.34.81-.6,1.88-.78,3.22-.19,1.34-.27,3.01-.23,5Z"/>
    <path d="M351.93,51.96c-.49,0-.94-.02-1.35-.05-.41-.03-.76-.08-1.07-.13-.3-.06-.53-.11-.67-.16l-.37-1.99c.38,0,.82-.04,1.34-.11.51-.07,1.02-.23,1.51-.48.74-.36,1.31-.91,1.74-1.64s.73-1.72.92-2.95c.19-1.23.28-2.77.28-4.62l-.02-20.49-2.84-1.13v-1.47l8.99-2.52h.76l1.15,1.1.02,23.6c0,2.24-.3,4.18-.91,5.82-.61,1.64-1.41,3-2.43,4.07-1.01,1.07-2.13,1.86-3.36,2.38-1.23.51-2.46.77-3.7.77ZM357.76,12.11c-1.34,0-2.36-.4-3.05-1.2-.69-.8-1.04-1.74-1.04-2.82,0-1.34.41-2.47,1.23-3.38.82-.91,1.98-1.37,3.5-1.37h.05c1.36,0,2.38.39,3.06,1.18.69.78,1.03,1.72,1.03,2.82,0,1.29-.41,2.41-1.23,3.36-.82.95-1.98,1.42-3.5,1.42h-.05Z"/>
    <path d="M372.76,40.63c-1.42,0-2.67-.3-3.74-.91s-1.9-1.45-2.48-2.52-.87-2.34-.87-3.8c0-1.55.42-2.87,1.26-3.95.84-1.08,1.95-1.95,3.33-2.61s2.9-1.14,4.57-1.43,3.32-.45,4.97-.47v-2.57c0-.78-.18-1.48-.53-2.08-.35-.6-.87-1.08-1.54-1.42-.68-.34-1.53-.51-2.56-.51-1.63,0-3.08.18-4.33.54-1.25.36-2.21.67-2.88.93l-.81-1.57c.52-.54,1.3-1.12,2.33-1.74,1.03-.62,2.3-1.16,3.8-1.62,1.5-.46,3.22-.69,5.15-.69s3.66.31,5.06.92c1.4.61,2.47,1.58,3.22,2.9.75,1.32,1.13,3.06,1.13,5.2v14.85l1.94.39v1.32c-.36.07-.87.16-1.54.28-.67.12-1.41.23-2.22.32-.81.09-1.63.13-2.46.13-1.16,0-2.05-.13-2.67-.38-.62-.25-.93-.87-.93-1.85v-1.86c-.28.65-.75,1.3-1.42,1.95-.67.65-1.49,1.18-2.46,1.61-.97.42-2.08.64-3.32.64ZM377.03,36.64c.42,0,.93-.11,1.51-.32s1.01-.55,1.29-1v-8.6c-1.47,0-2.63.25-3.48.74s-1.46,1.16-1.83,2c-.37.84-.55,1.79-.55,2.83,0,.87.13,1.63.39,2.28.26.65.62,1.16,1.08,1.53s.99.55,1.59.55Z"/>
    <path d="M409.37,40.63c-1.24,0-2.44-.24-3.6-.72s-2.21-1.22-3.14-2.22c-.93-1-1.67-2.25-2.21-3.77-.54-1.52-.81-3.31-.81-5.37,0-3.3.57-6.02,1.7-8.15,1.14-2.13,2.66-3.72,4.57-4.77,1.91-1.05,3.99-1.57,6.25-1.57.83,0,1.63.09,2.38.28.75.19,1.31.41,1.69.67V3.9l-3.7-.66v-1.18l9.85-2.06h1.23l.76.74v37.57h2.08v1.5c-.56.13-1.45.29-2.68.48s-2.45.28-3.66.28c-.98,0-1.83-.13-2.55-.38s-1.08-.87-1.08-1.85v-1.79c-.31.7-.8,1.36-1.47,1.99-.67.62-1.48,1.13-2.44,1.52-.96.39-2.01.59-3.17.59ZM412.98,37.06c.54,0,1.02-.08,1.45-.25s.79-.38,1.09-.66c.3-.28.53-.56.7-.86v-17.62c-.26-.56-.66-.98-1.19-1.26-.53-.29-1.12-.43-1.78-.43-1.09,0-1.98.42-2.65,1.25s-1.16,2.09-1.48,3.77c-.32,1.68-.48,3.81-.48,6.37-.02,2.48.18,4.44.59,5.86.41,1.42.94,2.41,1.59,2.98.65.56,1.37.85,2.16.85Z"/>
    <path d="M440.4,40.66c-2.91,0-5.28-.53-7.11-1.58-1.83-1.05-3.17-2.54-4.03-4.46-.86-1.92-1.29-4.18-1.29-6.78,0-2.12.31-4.04.92-5.73.61-1.7,1.48-3.14,2.61-4.34,1.13-1.19,2.47-2.11,4.02-2.74s3.27-.96,5.15-.96c3.24,0,5.74.79,7.52,2.37,1.78,1.58,2.7,3.85,2.74,6.83,0,1.13-.03,2.08-.1,2.87-.07.78-.16,1.37-.29,1.76h-13.82c.07,1.68.26,3.1.58,4.26.32,1.16.76,2.09,1.32,2.78.56.69,1.25,1.2,2.07,1.52.82.32,1.75.48,2.79.48.95,0,2.01-.16,3.19-.47,1.18-.31,2.12-.72,2.82-1.23l.78,1.67c-.46.51-1.19,1.05-2.19,1.63-1,.58-2.17,1.08-3.5,1.49s-2.72.63-4.18.63ZM436.68,26.32l5.83-.42c.02-.52.03-1.02.04-1.48,0-.47.02-.96.04-1.48,0-2.35-.16-4.13-.47-5.32-.31-1.19-.96-1.79-1.96-1.79-.46,0-.9.18-1.32.53-.43.35-.8.93-1.14,1.74-.33.81-.6,1.88-.78,3.22-.19,1.34-.27,3.01-.23,5Z"/>
    <path d="M461.23,40.07v-1.35l3.33-.81V5.91l-3.31-.91v-1.35h7.5c1.03,0,1.94-.03,2.72-.09.78-.06,1.58-.11,2.39-.16s1.77-.07,2.88-.07c3.51,0,6.31.35,8.41,1.07,2.09.71,3.59,1.78,4.5,3.2.91,1.42,1.36,3.19,1.36,5.32,0,1.32-.26,2.69-.77,4.09-.51,1.41-1.31,2.67-2.38,3.79-1.07,1.12-2.45,1.93-4.13,2.44,1.14.29,2.14.85,3,1.65.86.81,1.61,1.76,2.27,2.84.65,1.09,1.23,2.21,1.73,3.38s.94,2.28,1.32,3.32c.38,1.05.73,1.91,1.04,2.6.31.69.62,1.09.93,1.2l1.23.47v1.37h-10.12c-.41,0-.81-.34-1.2-1.03-.39-.69-.78-1.58-1.18-2.67-.39-1.09-.8-2.27-1.23-3.53-.42-1.26-.87-2.48-1.34-3.65-.47-1.18-.96-2.18-1.5-3.01-.53-.83-1.11-1.36-1.73-1.59h-3.45v13.36l3.73.76v1.37h-16ZM476.74,22.74c1.09,0,2.01-.4,2.74-1.19.74-.79,1.29-1.9,1.67-3.31s.56-3.03.56-4.86c0-1.67-.19-3.12-.58-4.36-.38-1.24-.99-2.21-1.8-2.9-.82-.69-1.9-1.04-3.24-1.04-.59,0-1.03.02-1.32.05-.29.03-.52.07-.69.12-.16.05-.36.09-.59.12v17.25c.25.05.58.08,1,.1.42.02.85.02,1.26.02h.97Z"/>
    <path d="M495.42,27.82c0-2.39.37-4.44,1.1-6.15.74-1.72,1.74-3.13,3.01-4.25,1.27-1.12,2.72-1.94,4.33-2.48,1.61-.53,3.3-.8,5.06-.8,2.58,0,4.8.48,6.65,1.43s3.28,2.39,4.28,4.29c1,1.9,1.5,4.28,1.5,7.14,0,2.39-.37,4.44-1.1,6.16-.74,1.72-1.74,3.14-3,4.24-1.27,1.1-2.71,1.92-4.33,2.45-1.62.53-3.31.8-5.07.8-1.88,0-3.58-.27-5.11-.8-1.53-.53-2.84-1.33-3.92-2.4-1.09-1.07-1.92-2.41-2.51-4.02-.59-1.61-.88-3.48-.88-5.62ZM508.46,38.89c.88,0,1.59-.38,2.13-1.15.54-.77.93-1.97,1.18-3.6.25-1.63.37-3.73.37-6.3,0-1.8-.05-3.43-.16-4.89-.11-1.46-.29-2.72-.56-3.77-.27-1.05-.65-1.86-1.13-2.43-.48-.56-1.09-.85-1.83-.85-.93,0-1.68.38-2.23,1.14-.56.76-.96,1.96-1.21,3.59s-.38,3.77-.38,6.4c0,1.76.06,3.37.17,4.83.11,1.45.31,2.7.59,3.75s.67,1.85,1.16,2.43c.5.57,1.13.86,1.9.86Z"/>
    <path d="M522.01,3.82v-1.32l8.8-2.5h.76l1.37,1.05v16.54c.23-.46.67-.97,1.32-1.53.65-.56,1.45-1.04,2.4-1.43.95-.39,1.94-.59,2.99-.59,2.09,0,3.86.47,5.29,1.41,1.44.94,2.52,2.29,3.26,4.06.74,1.76,1.1,3.91,1.1,6.42,0,2.35-.33,4.44-.99,6.26-.66,1.82-1.58,3.36-2.74,4.62-1.17,1.26-2.5,2.21-4.01,2.84-1.5.64-3.09.96-4.75.96-2.52,0-4.62-.12-6.3-.37-1.68-.25-2.99-.52-3.91-.82-.92-.3-1.5-.53-1.73-.67V4.88l-2.87-1.05ZM536.17,17.62c-.67,0-1.22.11-1.64.34-.43.23-.76.48-1.01.76s-.44.51-.59.69v17.74c.26.54.72.96,1.38,1.26.66.3,1.31.45,1.95.45.98,0,1.78-.44,2.41-1.31.63-.87,1.09-2.18,1.38-3.92.29-1.74.45-3.92.47-6.53,0-2.43-.2-4.34-.6-5.71s-.93-2.34-1.59-2.92c-.66-.57-1.38-.86-2.17-.86Z"/>
    <path d="M553.18,37.91V4.9l-2.84-1.05v-1.35l8.82-2.5h.74l1.37,1.08v36.86l2.87.78v1.35h-13.77v-1.35l2.82-.81Z"/>
    <path d="M577.45,40.66c-2.91,0-5.28-.53-7.11-1.58-1.83-1.05-3.17-2.54-4.03-4.46-.86-1.92-1.29-4.18-1.29-6.78,0-2.12.31-4.04.92-5.73.61-1.7,1.48-3.14,2.61-4.34,1.13-1.19,2.47-2.11,4.02-2.74s3.27-.96,5.15-.96c3.24,0,5.74.79,7.52,2.37,1.78,1.58,2.7,3.85,2.74,6.83,0,1.13-.03,2.08-.1,2.87-.07.78-.16,1.37-.29,1.76h-13.82c.07,1.68.26,3.1.58,4.26.32,1.16.76,2.09,1.32,2.78.56.69,1.25,1.2,2.07,1.52.82.32,1.75.48,2.79.48.95,0,2.01-.16,3.19-.47,1.18-.31,2.12-.72,2.82-1.23l.78,1.67c-.46.51-1.19,1.05-2.19,1.63-1,.58-2.17,1.08-3.5,1.49s-2.72.63-4.18.63ZM573.72,26.32l5.83-.42c.02-.52.03-1.02.04-1.48,0-.47.02-.96.04-1.48,0-2.35-.16-4.13-.47-5.32-.31-1.19-.96-1.79-1.96-1.79-.46,0-.9.18-1.32.53-.43.35-.8.93-1.14,1.74-.33.81-.6,1.88-.78,3.22-.19,1.34-.27,3.01-.23,5Z"/>
    <path d="M599.99,40.63c-1.24,0-2.44-.24-3.6-.72s-2.21-1.22-3.14-2.22c-.93-1-1.67-2.25-2.21-3.77-.54-1.52-.81-3.31-.81-5.37,0-3.3.57-6.02,1.7-8.15,1.14-2.13,2.66-3.72,4.57-4.77,1.91-1.05,3.99-1.57,6.25-1.57.83,0,1.63.09,2.38.28.75.19,1.31.41,1.69.67V3.9l-3.7-.66v-1.18l9.85-2.06h1.23l.76.74v37.57h2.08v1.5c-.56.13-1.45.29-2.68.48s-2.45.28-3.66.28c-.98,0-1.83-.13-2.55-.38s-1.08-.87-1.08-1.85v-1.79c-.31.7-.8,1.36-1.47,1.99-.67.62-1.48,1.13-2.44,1.52-.96.39-2.01.59-3.17.59ZM603.59,37.06c.54,0,1.02-.08,1.45-.25s.79-.38,1.09-.66c.3-.28.53-.56.7-.86v-17.62c-.26-.56-.66-.98-1.19-1.26-.53-.29-1.12-.43-1.78-.43-1.09,0-1.98.42-2.65,1.25s-1.16,2.09-1.48,3.77c-.32,1.68-.48,3.81-.48,6.37-.02,2.48.18,4.44.59,5.86.41,1.42.94,2.41,1.59,2.98.65.56,1.37.85,2.16.85Z"/>
    <path d="M618.57,27.82c0-2.39.37-4.44,1.1-6.15.74-1.72,1.74-3.13,3.01-4.25,1.27-1.12,2.72-1.94,4.33-2.48,1.61-.53,3.3-.8,5.06-.8,2.58,0,4.8.48,6.65,1.43s3.28,2.39,4.28,4.29c1,1.9,1.5,4.28,1.5,7.14,0,2.39-.37,4.44-1.1,6.16-.74,1.72-1.74,3.14-3,4.24-1.27,1.1-2.71,1.92-4.33,2.45-1.62.53-3.31.8-5.07.8-1.88,0-3.58-.27-5.11-.8-1.53-.53-2.84-1.33-3.92-2.4-1.09-1.07-1.92-2.41-2.51-4.02-.59-1.61-.88-3.48-.88-5.62ZM631.61,38.89c.88,0,1.59-.38,2.13-1.15.54-.77.93-1.97,1.18-3.6.25-1.63.37-3.73.37-6.3,0-1.8-.05-3.43-.16-4.89-.11-1.46-.29-2.72-.56-3.77-.27-1.05-.65-1.86-1.13-2.43-.48-.56-1.09-.85-1.83-.85-.93,0-1.68.38-2.23,1.14-.56.76-.96,1.96-1.21,3.59s-.38,3.77-.38,6.4c0,1.76.06,3.37.17,4.83.11,1.45.31,2.7.59,3.75s.67,1.85,1.16,2.43c.5.57,1.13.86,1.9.86Z"/>
  </g>
  <g id="layer1">
    <path id="path827" class="cls-1" d="M8.16,16.96c4.5.11,10.3.17,15.43.13,5.14-.05,11.72-.49,15.36-.41s3.9-.85,3.26-1.89c-.63-1.04-4.89-3.57-5.71-5.27s.22-3.82.81-4.95c.59-1.13,1.57-1.81,2.72-1.84,1.16-.04,1.12.33,4.2,1.62l14.35,6.09c4.23,1.72,8.34,3.13,11.03,4.23,2.7,1.11,4.13,1.37,5.15,2.42,1.01,1.05,1.67,2.48.95,3.91-.71,1.42-.93,1.61-5.23,4.64-4.31,3.03-16.13,11.08-20.59,13.53-4.45,2.45-5.68,1.32-6.11,1.18-.44-.14-.72-1.92-1.61-2.97-.35-.84-1.32-1.62-1.05-2.51.28-.9,1.57-1.75,2.71-2.85s3.26-2.86,4.13-3.77c.88-.91,1.16-1.18,1.1-1.69-.06-.52-.17-1.25-1.83-1.21-1.65.04-2.46.04-7.12.22l-20.83.88-10.47.38c-2.53.14-3.71.41-4.77.49s-2.71.44-3.36-.11C0,26.65-.09,24.83.07,23.98c.02-.77.79-.65,1.56-1.88.62-.96.23-2.44.8-3.42.36-.74.45-1.05.97-1.38.51-.33,1.39-.32,2.03-.46l2.73.13h0Z"/>
  </g>
</svg>